<mxfile host="app.diagrams.net" modified="2023-08-12T12:12:57.252Z" agent="Mozilla/5.0 (Windows NT 10.0; Win64; x64) AppleWebKit/537.36 (KHTML, like Gecko) Chrome/115.0.0.0 Safari/537.36" etag="IVzYoZ9tVy75EEshY6q_" version="21.6.8" type="github">
  <diagram name="Page-1" id="pmae3yVPODafDrBMmQs1">
    <mxGraphModel dx="1272" dy="626" grid="1" gridSize="10" guides="1" tooltips="1" connect="1" arrows="1" fold="1" page="1" pageScale="1" pageWidth="827" pageHeight="1169" math="0" shadow="0">
      <root>
        <mxCell id="0" />
        <mxCell id="1" parent="0" />
        <mxCell id="a40wpVU0w3DmStkUdpJO-24" value="" style="edgeStyle=orthogonalEdgeStyle;rounded=0;orthogonalLoop=1;jettySize=auto;html=1;" edge="1" parent="1" source="a40wpVU0w3DmStkUdpJO-1" target="a40wpVU0w3DmStkUdpJO-4">
          <mxGeometry relative="1" as="geometry" />
        </mxCell>
        <mxCell id="a40wpVU0w3DmStkUdpJO-1" value="Welcome Screen" style="rounded=0;whiteSpace=wrap;html=1;fillColor=#dae8fc;strokeColor=#6c8ebf;" vertex="1" parent="1">
          <mxGeometry x="322" y="30" width="184" height="40" as="geometry" />
        </mxCell>
        <mxCell id="a40wpVU0w3DmStkUdpJO-17" value="" style="edgeStyle=orthogonalEdgeStyle;rounded=0;orthogonalLoop=1;jettySize=auto;html=1;" edge="1" parent="1" source="a40wpVU0w3DmStkUdpJO-3" target="a40wpVU0w3DmStkUdpJO-5">
          <mxGeometry relative="1" as="geometry" />
        </mxCell>
        <mxCell id="a40wpVU0w3DmStkUdpJO-23" value="" style="edgeStyle=orthogonalEdgeStyle;rounded=0;orthogonalLoop=1;jettySize=auto;html=1;" edge="1" parent="1" source="a40wpVU0w3DmStkUdpJO-3" target="a40wpVU0w3DmStkUdpJO-9">
          <mxGeometry relative="1" as="geometry" />
        </mxCell>
        <mxCell id="a40wpVU0w3DmStkUdpJO-3" value="Home Page" style="rounded=0;whiteSpace=wrap;html=1;fillColor=#fff2cc;strokeColor=#d6b656;" vertex="1" parent="1">
          <mxGeometry x="322" y="100" width="184" height="40" as="geometry" />
        </mxCell>
        <mxCell id="a40wpVU0w3DmStkUdpJO-15" value="" style="edgeStyle=orthogonalEdgeStyle;rounded=0;orthogonalLoop=1;jettySize=auto;html=1;" edge="1" parent="1" source="a40wpVU0w3DmStkUdpJO-4" target="a40wpVU0w3DmStkUdpJO-6">
          <mxGeometry relative="1" as="geometry" />
        </mxCell>
        <mxCell id="a40wpVU0w3DmStkUdpJO-18" value="" style="edgeStyle=orthogonalEdgeStyle;rounded=0;orthogonalLoop=1;jettySize=auto;html=1;" edge="1" parent="1" source="a40wpVU0w3DmStkUdpJO-4" target="a40wpVU0w3DmStkUdpJO-8">
          <mxGeometry relative="1" as="geometry" />
        </mxCell>
        <mxCell id="a40wpVU0w3DmStkUdpJO-4" value="Product Listings" style="rounded=0;whiteSpace=wrap;html=1;" vertex="1" parent="1">
          <mxGeometry x="322" y="160" width="184" height="40" as="geometry" />
        </mxCell>
        <mxCell id="a40wpVU0w3DmStkUdpJO-5" value="Product Details" style="rounded=0;whiteSpace=wrap;html=1;" vertex="1" parent="1">
          <mxGeometry x="322" y="230" width="184" height="40" as="geometry" />
        </mxCell>
        <mxCell id="a40wpVU0w3DmStkUdpJO-16" value="" style="edgeStyle=orthogonalEdgeStyle;rounded=0;orthogonalLoop=1;jettySize=auto;html=1;" edge="1" parent="1" source="a40wpVU0w3DmStkUdpJO-6" target="a40wpVU0w3DmStkUdpJO-7">
          <mxGeometry relative="1" as="geometry" />
        </mxCell>
        <mxCell id="a40wpVU0w3DmStkUdpJO-6" value="Cart Page" style="rounded=0;whiteSpace=wrap;html=1;" vertex="1" parent="1">
          <mxGeometry x="322" y="300" width="184" height="40" as="geometry" />
        </mxCell>
        <mxCell id="a40wpVU0w3DmStkUdpJO-7" value="Order &amp;amp; Payment Page" style="rounded=0;whiteSpace=wrap;html=1;" vertex="1" parent="1">
          <mxGeometry x="322" y="370" width="184" height="40" as="geometry" />
        </mxCell>
        <mxCell id="a40wpVU0w3DmStkUdpJO-22" style="edgeStyle=orthogonalEdgeStyle;rounded=0;orthogonalLoop=1;jettySize=auto;html=1;entryX=1;entryY=0.5;entryDx=0;entryDy=0;" edge="1" parent="1" source="a40wpVU0w3DmStkUdpJO-8" target="a40wpVU0w3DmStkUdpJO-5">
          <mxGeometry relative="1" as="geometry">
            <mxPoint x="590" y="270" as="targetPoint" />
          </mxGeometry>
        </mxCell>
        <mxCell id="a40wpVU0w3DmStkUdpJO-8" value="Search Product Listings" style="rounded=0;whiteSpace=wrap;html=1;fillColor=#e1d5e7;strokeColor=#9673a6;" vertex="1" parent="1">
          <mxGeometry x="580" y="200" width="184" height="40" as="geometry" />
        </mxCell>
        <mxCell id="a40wpVU0w3DmStkUdpJO-9" value="Profile &amp;amp; Settings Page" style="rounded=0;whiteSpace=wrap;html=1;fillColor=#d5e8d4;strokeColor=#82b366;" vertex="1" parent="1">
          <mxGeometry x="70" y="160" width="184" height="40" as="geometry" />
        </mxCell>
        <mxCell id="a40wpVU0w3DmStkUdpJO-11" value="Terms &amp;amp; Services Page" style="rounded=0;whiteSpace=wrap;html=1;fillColor=#fff2cc;strokeColor=#d6b656;" vertex="1" parent="1">
          <mxGeometry x="218" y="450" width="184" height="40" as="geometry" />
        </mxCell>
        <mxCell id="a40wpVU0w3DmStkUdpJO-12" value="Prifacy Policy Page" style="rounded=0;whiteSpace=wrap;html=1;fillColor=#fff2cc;strokeColor=#d6b656;" vertex="1" parent="1">
          <mxGeometry x="426" y="450" width="184" height="40" as="geometry" />
        </mxCell>
      </root>
    </mxGraphModel>
  </diagram>
</mxfile>
